<svg xmlns="http://www.w3.org/2000/svg" xmlns:xlink="http://www.w3.org/1999/xlink" id="Layer_1" width="2560" height="220" x="0" y="0" version="1.1" viewBox="0 0 2560 220" style="enable-background:new 0 0 2560 220" xml:space="preserve"><style type="text/css">.st0{fill:none}.st1{fill:#ececec}.st2{fill:url(#SVGID_1_)}.st3{fill:#f7f7f7}</style><pattern id="SVGID_2_" width="7" height="7" y="221.12" patternUnits="userSpaceOnUse" viewBox="0 -7 7 7" style="overflow:visible"><g><rect width="7" height="7" y="-7" class="st0"/><g><rect width="7" height="7" y="-7" class="st0"/><g><rect width="7" height="7" y="-7" class="st0"/><circle cx="3.5" cy="-3.5" r="1.4" class="st1"/></g></g></g></pattern><g><pattern id="SVGID_1_" patternTransform="matrix(-1 0 0 -1 -42777.3789 -32095.3027)" xlink:href="#SVGID_2_"/><path d="M0.2,0c25.7,68.9,103.2,79.33,181.1,78.03c341.33-5.55,696.01-99.61,1045.45-63.02 C1695.6,64.1,2155.02,127.11,2560.1,139.6c0-18.85,0-139.6,0-139.6H0.2z" class="st2"/></g><path d="M0.2,220c656.38,0,1120.7-277.98,2294.2-200.18c44.22,2.92,189.02,18.01,265.7,26.8c0-18.85,0-33.23,0-46.62	H0.2C0.2,40.8,0,201.72,0.2,220z" class="st3"/></svg>